<?xml version="1.0" encoding="UTF-8" standalone="no"?>
<!DOCTYPE svg PUBLIC "-//W3C//DTD SVG 1.1//EN" "http://www.w3.org/Graphics/SVG/1.1/DTD/svg11.dtd">
<svg width="100%" height="100%" viewBox="0 0 512 512" version="1.1" xmlns="http://www.w3.org/2000/svg" xmlns:xlink="http://www.w3.org/1999/xlink" xml:space="preserve" xmlns:serif="http://www.serif.com/" style="fill-rule:evenodd;clip-rule:evenodd;stroke-linejoin:round;stroke-miterlimit:2;">
    <g transform="matrix(1,0,0,1,0,-827.845)">
        <rect x="0" y="827.845" width="512" height="512" style="fill:rgb(241,197,2);"/>
        <path d="M512,827.845L0,827.845L0,1339.85L512,1339.85L512,827.845ZM424.5,915.345L424.5,1252.35C424.5,1252.35 87.5,1252.35 87.5,1252.35C87.5,1252.35 87.5,915.345 87.5,915.345C87.5,915.345 424.5,915.345 424.5,915.345L424.5,915.345Z" style="fill:rgb(241,197,2);"/>
        <g id="Artboard1" transform="matrix(0.525128,0,0,0.787692,0,827.845)">
            <rect x="0" y="0" width="975" height="650" style="fill:rgb(0,126,55);"/>
            <g transform="matrix(11.8324,0,0,7.8883,-673.947,-9.89771)">
                <path d="M83.014,55.829C81.788,55.829 80.732,54.963 80.492,53.761C79.727,49.937 78.069,41.647 76.971,36.153C76.827,35.434 77.169,34.704 77.814,34.355C78.46,34.006 79.257,34.118 79.781,34.633C82.146,36.955 85.017,39.774 86.635,41.364C86.949,41.672 87.384,41.825 87.822,41.782C88.261,41.738 88.657,41.502 88.904,41.137C90.66,38.544 94.318,33.144 96.465,29.973C96.842,29.417 97.47,29.083 98.142,29.081C98.814,29.079 99.444,29.409 99.824,29.964C101.992,33.126 105.684,38.511 107.418,41.038C107.658,41.39 108.039,41.621 108.462,41.672C108.884,41.724 109.309,41.592 109.627,41.309C111.267,39.852 114.205,37.24 116.595,35.116C117.134,34.637 117.919,34.558 118.543,34.919C119.167,35.28 119.489,36 119.342,36.706C118.25,41.964 116.574,50.03 115.795,53.78C115.547,54.973 114.496,55.829 113.277,55.829L83.014,55.829Z" style="fill:rgb(241,197,2);"/>
            </g>
        </g>
    </g>
</svg>
